<svg width="24" height="18" viewBox="0 0 24 18" fill="none" xmlns="http://www.w3.org/2000/svg">
<path d="M10.9412 9.09118C10.9412 9.26765 11.1177 9.44413 11.2941 9.44413L12 9.44413C12.1765 9.6206 12.353 9.44412 12.353 9.09118C12.353 8.91471 12.1765 8.73824 12 8.73824L11.2941 8.73824C11.1177 8.73824 10.9412 8.91471 10.9412 9.09118Z" fill="#01633E"/>
<path d="M15.1765 8.3853C15.1765 8.56177 15.353 8.73824 15.7059 8.73824L16.4118 8.73824C16.5882 8.73824 16.7647 8.56177 16.7647 8.3853C16.7647 8.20883 16.5882 8.03236 16.4118 8.03236L15.7059 8.03236C15.353 7.85589 15.1765 8.03236 15.1765 8.3853Z" fill="#01633E"/>
<path d="M13.5883 12.4441C13.5883 12.6206 13.7647 12.7971 13.9412 12.7971L14.6471 12.7971C14.8236 12.7971 15 12.6206 15 12.4441C15 12.2677 14.8236 12.0912 14.6471 12.0912L13.9412 12.0912C13.7647 12.0912 13.5883 12.2677 13.5883 12.4441Z" fill="#01633E"/>
<path d="M17.2941 11.5618C17.2941 11.7382 17.4706 11.9147 17.647 11.9147L18.3529 11.9147C18.5294 11.9147 18.7059 11.7382 18.7059 11.5618C18.7059 11.3853 18.5294 11.2088 18.3529 11.2088L17.647 11.2088C17.4706 11.0324 17.2941 11.2088 17.2941 11.5618Z" fill="#01633E"/>
<path d="M16.7647 4.67942C16.7647 5.03236 16.9412 5.20883 17.1177 5.20883L17.8235 5.20883C18 5.20883 18.1765 5.03236 18.1765 4.85589C18.1765 4.67942 18 4.50295 17.8235 4.50295L17.1177 4.50295C16.9412 4.32647 16.7647 4.50295 16.7647 4.67942Z" fill="#01633E"/>
<path d="M19.9412 8.56177C19.9412 8.73824 20.1176 8.91471 20.2941 8.91471L21 8.91471C21.1765 8.91471 21.3529 8.73824 21.3529 8.56177C21.3529 8.3853 21.1765 8.20883 21 8.20883L20.2941 8.20883C20.1176 8.20883 19.9412 8.3853 19.9412 8.56177Z" fill="#01633E"/>
<path d="M13.0588 5.20882C13.0588 5.38529 13.2353 5.56176 13.4117 5.56176L14.1176 5.56176C14.2941 5.56176 14.4706 5.38529 14.4706 5.20882C14.4706 5.03235 14.2941 4.85588 14.1176 4.85588L13.4117 4.85588C13.2353 4.85588 13.0588 5.03235 13.0588 5.20882Z" fill="#01633E"/>
<path d="M10.2353 2.73825C10.2353 2.91472 10.4117 3.09119 10.5882 3.09119L11.2941 3.09119C11.4706 3.09119 11.647 2.91472 11.647 2.73825C11.647 2.56178 11.4706 2.3853 11.2941 2.3853L10.7647 2.3853C10.4117 2.3853 10.2353 2.56178 10.2353 2.73825Z" fill="#01633E"/>
<path d="M10.2353 15.2677C10.2353 15.4441 10.4117 15.6206 10.5882 15.6206L11.2941 15.6206C11.4706 15.6206 11.647 15.4441 11.647 15.2677C11.647 15.0912 11.4706 14.9147 11.2941 14.9147L10.7647 14.9147C10.4117 14.9147 10.2353 15.0912 10.2353 15.2677Z" fill="#01633E"/>
<path d="M8.11765 0.620592C6.70588 1.32647 6.35294 2.3853 6.17647 3.26765C6 2.91471 5.64706 2.56177 5.29412 2.3853C4.7647 2.20883 4.58823 2.91471 4.41176 3.26765C4.41176 3.62059 4.23529 4.15 4.05882 4.85589C3.88235 5.91471 3.52941 6.97353 3.52941 6.97353C3.52941 7.15 3.52941 7.32647 3.70588 7.32647C4.05882 7.67941 4.58823 8.03236 4.76471 8.3853C4.58823 8.3853 4.23529 8.3853 3.88235 8.3853C2.64706 8.3853 1.41176 8.20883 0.882352 7.85588C0.705882 7.67941 0.705882 7.50294 0.705882 7.32647C0.705882 7.15 0.529411 6.97353 0.352941 6.79706C0.17647 6.79706 -4.61748e-07 6.97353 -4.54035e-07 7.15C-4.30893e-07 7.67941 0.17647 8.03236 0.529411 8.3853C1.23529 9.09118 2.64706 9.26765 4.05882 9.26765C4.23529 9.26765 4.58823 9.26765 4.76471 9.26765C4.41176 9.62059 4.05882 9.79706 3.70588 10.15C3.52941 10.15 3.52941 10.3265 3.52941 10.5029C3.52941 10.5029 3.70588 11.5618 4.05882 12.6206C4.23529 13.3265 4.41176 13.8559 4.58823 14.2088C4.76471 14.5618 5.11765 15.2676 5.47059 15.0912C5.82353 14.9147 6 14.5618 6.35294 14.2088C6.35294 15.0912 6.70588 16.3265 8.11765 17.0324C9.70588 17.7382 12.7059 17.9147 16.5882 16.15C19.4118 14.7382 21.3529 13.5029 22.7647 11.9147C23.6471 10.8559 24 9.79706 24 8.91471C24 8.03235 23.6471 6.97353 22.7647 5.91471C21.3529 4.15 19.4118 2.91471 16.5882 1.67941C12.8824 -0.438231 9.70588 -0.261761 8.11765 0.620592ZM4.41176 10.6794C5.29412 9.97353 5.64706 9.44412 5.82353 9.26765C5.82353 9.26765 6.52941 9.09118 6.70588 9.09118C7.05882 9.09118 7.05882 8.91471 7.05882 8.56177C7.05882 8.3853 6.88235 8.20883 6.52941 8.20883C6.35294 8.20883 5.82353 8.20883 5.82353 8.20883C5.64706 7.85588 5.29412 7.50294 4.41176 6.79706C4.76471 5.56177 5.11765 4.15 5.47059 3.44412C5.64706 4.15 6 5.03236 6 5.91471C6 6.09118 6.17647 6.09118 6.17647 6.26765C6.35294 6.26765 6.52941 6.26765 6.52941 6.26765C7.94118 5.56177 9.52941 4.85588 10.2353 4.50294C9.88235 5.20883 9 6.26765 8.47059 6.79706C7.58823 8.20883 7.58823 8.3853 7.58823 8.73824C7.58824 9.09118 7.58823 9.26765 8.82353 10.6794C9.35294 11.3853 10.0588 12.4441 10.5882 12.9735C9.70588 12.7971 8.29412 11.9147 6.88235 11.2088C6.70588 11.2088 6.70588 11.2088 6.52941 11.2088C6.35294 11.2088 6.35294 11.3853 6.35294 11.5618C6 12.4441 5.64706 13.5029 5.47059 14.0324C5.11765 13.3265 4.76471 11.9147 4.41176 10.6794ZM16.2353 2.20883C18.8824 3.44412 20.8235 4.67941 22.0588 6.26765C22.7647 7.15 23.1176 8.03235 23.1176 8.73824C23.1176 9.44412 22.7647 10.3265 22.0588 11.2088C20.8235 12.7971 19.0588 14.0324 16.2353 15.2676C12.7059 17.0324 9.88235 16.8559 8.47059 16.15C7.05882 15.4441 7.05882 14.3853 7.05882 13.3265C7.05882 13.3265 7.05882 12.9735 7.05882 12.6206L7.05882 12.4441C7.41176 12.6206 7.94118 12.9735 8.47059 13.15C9 13.5029 9.52941 13.6794 10.0588 13.8559C10.5882 14.0324 11.1176 14.0324 11.2941 13.8559C11.2941 13.8559 11.4706 13.6794 11.4706 13.5029C11.4706 12.9735 10.7647 12.0912 9.35294 10.15C9 9.62059 8.64706 9.09118 8.47059 8.73824C8.64706 8.3853 9.17647 7.85588 9.52941 7.32647C10.9412 5.56177 11.6471 4.50294 11.6471 3.97353C11.6471 3.79706 11.6471 3.62059 11.4706 3.62059C11.1176 3.44412 10.5882 3.44412 10.0588 3.79706C9.52941 3.79706 9 4.15 8.47059 4.32647C7.94118 4.67941 7.58823 4.85589 7.05882 4.85589C7.05882 4.85589 7.05882 4.85588 7.05882 4.67941C7.05882 4.32647 7.05882 4.15 7.05882 3.97353C7.05882 2.91471 7.05882 1.85589 8.47059 1.15C9.88235 0.620592 12.7059 0.444122 16.2353 2.20883Z" fill="#01633E"/>
</svg>
