<svg width="27" height="24" viewBox="0 0 27 24" fill="none" xmlns="http://www.w3.org/2000/svg">
<path d="M16.8182 0.267059C14.3636 1.05349 13.2727 2.53899 13.8182 4.28663L13.8182 4.37401C13 2.9759 11.4545 2.18946 9.54545 2.36422C9.18182 2.36422 8.18182 2.36423 8.09091 2.36423C7.90909 2.36423 7.72727 2.53899 7.72727 2.71375C7.72727 2.80114 7.72727 2.80114 7.72727 2.88852C7.72727 2.88852 8.18182 3.84972 8.36364 4.19925C8.90909 5.68474 10 6.64594 11.3636 6.99547C11.1818 7.08285 11 7.08285 10.8182 7.17023C9.54545 7.43238 8.36364 7.51976 7.27273 7.51976C4.72727 7.51976 2.45454 7.08285 0.545454 6.03427C0.363636 5.94689 0.181817 5.94689 0.0909083 6.03427C-7.81487e-07 6.12165 -7.73848e-07 6.29641 -7.66209e-07 6.47118C1.09091 9.18002 3.09091 11.8015 5.54545 13.8986C7.18182 15.2968 9 16.4327 10.8182 17.3065C9 17.5687 7.27273 18.8794 6.45455 20.8018C6.27273 21.2387 5.54545 22.4621 5.54545 22.4621C5.45455 22.5495 5.54545 22.7242 5.72727 22.8116L5.81818 22.8116C5.81818 22.8116 7.18182 22.899 7.63636 22.9864C10.3636 23.4233 12.7273 22.2873 13.8182 20.0154C13.8182 20.1028 13.7273 20.1901 13.7273 20.2775C13.5455 21.6756 13.9091 23.4233 17.3636 23.9476C18.7273 24.1223 20.1818 23.8602 21.2727 23.1611C22.5455 22.3747 23.3636 21.1513 23.6364 19.5785C23.6364 19.3163 23.7273 19.0542 23.7273 18.792C23.7273 18.2677 23.6364 17.7435 23.4545 17.2192C24.0909 16.957 24.7273 16.6075 25.2727 16.1706C26.3636 15.2094 27 13.8113 27 12.2384L27 12.151C27 10.9277 26.4545 9.70431 25.4545 8.74311C24.9091 8.21882 24.1818 7.78191 23.4545 7.43238C23.7273 6.82071 24 6.12165 24 5.16045C24 4.63616 23.9091 4.02448 23.7273 3.41281C23.3636 2.18946 22.3636 1.22826 21.1818 0.616586C19.8182 -0.0824708 18.1818 -0.169852 16.8182 0.267059ZM9.09091 3.84972C9 3.67495 8.81818 3.23804 8.72727 2.9759C9.09091 2.9759 9.45455 2.9759 9.72727 2.9759C11.7273 2.80114 13.3636 3.84972 13.8182 5.68474L13.9091 6.12165C13.9091 6.20903 13.9091 6.29641 13.8182 6.29641L13.3636 6.3838C11.5455 6.73332 9.72727 5.68474 9.09091 3.84972ZM14 4.54877C14.1818 4.81092 14.3636 5.07307 14.5455 5.33521C14.7273 5.59736 14.9091 5.8595 15 6.03427C14.8182 6.12165 14.7273 6.12165 14.5455 6.20903L14.5455 6.12165C14.5455 6.03427 14.5455 6.03427 14.5455 5.94689L14.4545 5.50997C14.3636 5.33521 14.3636 5.16045 14.2727 4.98568L14 4.54877ZM12.8182 7.43238C12.8182 7.345 12.8182 7.345 12.8182 7.43238C13.5455 7.17023 14.3636 6.90809 15.0909 6.64594C15.0909 6.82071 15.0909 6.99547 15.0909 7.25762C15.0909 7.69452 15.0909 8.13143 15.2727 8.48096C15.6364 9.52955 16.3636 10.2286 17.3636 10.4034C17.4545 10.6655 17.4545 10.9277 17.5455 11.1898C17.6364 11.3646 17.6364 11.6267 17.7273 11.8015C15.8182 11.8889 13.9091 11.8015 12 11.6267C12.6364 10.9277 13.0909 9.96646 13 9.00525C13 8.56834 12.9091 8.21882 12.8182 7.86929L12.8182 7.43238ZM9.90909 12.2384C9.72727 12.3258 9.45455 12.5005 9.18182 12.5879L9.09091 11.015C9.09091 9.61693 9.81818 8.3062 11 7.69452C11.4545 7.60714 11.8182 7.51976 12.2727 7.43238L12.2727 7.51976L12.3636 7.95667C12.4545 8.3062 12.4545 8.56834 12.4545 8.91787L12.4545 9.09264C12.4545 10.2286 11.8182 11.1898 10.8182 11.8015L9.90909 12.2384ZM1.45454 7.08285C3.18182 7.78191 5.18182 8.13144 7.36364 8.13144C8.09091 8.13144 8.90909 8.04405 9.63636 7.95667C8.90909 8.65573 8.45455 9.70431 8.36364 10.8403C8.18182 10.8403 8.09091 10.7529 7.90909 10.7529C5.18182 9.87907 3 8.65573 1.45454 7.08285ZM6 13.4617C4.18182 11.8889 2.63636 9.96646 1.45454 7.95667C3 9.35478 5.18182 10.5781 7.72727 11.3646C8 11.4519 8.18182 11.5393 8.45455 11.5393C8.45455 11.6267 8.45455 11.7141 8.45455 11.7141C8.54545 12.0636 8.54545 13.1122 8.54545 13.1122C8.54545 13.287 8.72727 13.3744 8.90909 13.3744C9 13.3744 9 13.3744 9 13.3744C9 13.3744 9.90909 12.8501 10.2727 12.7627C10.7273 12.5879 11.0909 12.4132 11.4545 12.151C13.4545 12.5005 15.6364 12.5879 17.8182 12.4132C17.8182 12.6753 17.7273 12.9374 17.6364 13.1996C17.6364 13.287 17.5455 13.3744 17.5455 13.5491C15.8182 13.6365 14.8182 14.4229 14.5455 15.821C14.4545 16.258 14.5455 16.6949 14.6364 17.1318C14.6364 17.3065 14.7273 17.5687 14.7273 17.7435C11.5455 17.2192 8.54545 15.6463 6 13.4617ZM7.81818 22.3747C7.45455 22.2873 6.81818 22.2873 6.36364 22.1999C6.63636 21.763 6.90909 21.2387 7.09091 20.8892C8.18182 18.5299 10.5455 17.3065 12.8182 17.9182L13.4545 18.093C13.6364 18.1804 13.7273 18.3551 13.6364 18.5299L13.4545 19.0542C12.7273 21.5009 10.4545 22.8116 7.81818 22.3747ZM14.2727 18.3551C14.3636 18.3551 14.4545 18.3551 14.5455 18.4425C14.4545 18.6173 14.3636 18.8794 14.1818 19.1416C14.0909 19.2289 14.0909 19.4037 14 19.4911L14.0909 19.3163L14.2727 18.7047C14.2727 18.6173 14.2727 18.5299 14.2727 18.4425L14.2727 18.3551ZM22.8182 17.3065C23.0909 18.0056 23.1818 18.7047 23 19.4037C22.7273 20.8018 22 21.8504 20.9091 22.5495C19.9091 23.1611 18.6364 23.4233 17.4545 23.2485C15.0909 22.899 14.0909 21.9378 14.3636 20.3649C14.3636 20.1028 14.5455 19.7532 14.7273 19.4037C14.9091 18.9668 15.0909 18.6173 15.1818 18.2677C15.2727 17.9182 15.1818 17.5687 15.0909 17.1318C15 16.6949 15 16.258 15 15.9958C15.1818 14.9472 15.9091 14.3356 17.1818 14.2482C17.1818 14.3356 17.1818 14.4229 17.1818 14.5103C17.1818 15.9084 17.9091 17.5687 21.3636 17.5687C21.9091 17.4813 22.3636 17.3939 22.8182 17.3065ZM25 9.18002C25.8182 10.0538 26.3636 11.1024 26.3636 12.151L26.3636 12.2384C26.3636 13.6365 25.8182 14.8598 24.8182 15.7337C23.9091 16.5201 22.7273 16.957 21.5455 16.957C19.1818 16.957 18 16.1706 18 14.5103C18 14.2482 18.0909 13.8986 18.2727 13.4617C18.3636 13.0248 18.5455 12.5879 18.5455 12.3258C18.5455 11.9762 18.4545 11.6267 18.2727 11.1898C18.1818 10.7529 18 10.4034 18 10.0538C18 8.13143 20.1818 7.78191 21.4545 7.78191C22.7273 7.69453 24 8.21882 25 9.18002ZM20.8182 1.14088C21.9091 1.66517 22.7273 2.53899 23.0909 3.58757C23.6364 5.16045 23.2727 6.3838 22.8182 7.25762C22.3636 7.17023 21.9091 7.08285 21.4545 7.08285C18.9091 7.08285 17.4545 8.04405 17.3636 9.79169C16.6364 9.61693 16.1818 9.09264 15.9091 8.3062C15.8182 8.04405 15.8182 7.69452 15.8182 7.25762C15.8182 6.8207 15.8182 6.3838 15.6364 6.03427C15.5455 5.68474 15.2727 5.42259 15 4.98568C14.7273 4.63616 14.5455 4.28663 14.3636 4.02448C13.7273 2.18946 15.7273 1.22826 16.9091 0.878732C18.1818 0.441823 19.6364 0.529203 20.8182 1.14088Z" fill="#01633E"/>
</svg>
